<svg width="118" height="152" viewBox="0 0 118 152" fill="none" xmlns="http://www.w3.org/2000/svg">
<path d="M20.2754 38.3907L27.512 99.8107L59.1816 126.474L91.7073 98.9807L97.8026 38.676L58.0663 19.7676L20.2754 38.3907Z" fill="#E2ECFF"/>
<path d="M115.414 26.3817L60.3746 0.444179C59.9453 0.239197 59.4756 0.132813 58.9999 0.132812C58.5242 0.132813 58.0545 0.239197 57.6252 0.444179L2.58581 26.3817C1.98042 26.6714 1.47891 27.1405 1.14943 27.7252C0.819955 28.3099 0.678484 28.9819 0.744244 29.6498L9.09612 107.462C9.17356 108.264 9.55389 109.006 10.1596 109.537L56.8471 151.037C57.4378 151.57 58.2047 151.864 58.9999 151.864C59.795 151.864 60.562 151.57 61.1527 151.037L107.84 109.537C108.446 109.006 108.826 108.264 108.904 107.462L117.255 29.6498C117.321 28.9819 117.18 28.3099 116.85 27.7252C116.521 27.1405 116.019 26.6714 115.414 26.3817ZM102.601 105.543L58.9999 144.294L15.3989 105.543L7.46206 31.2579L58.9999 6.95449L110.538 31.2579L102.601 105.543Z" fill="#3968C6"/>
<path d="M57.6253 17.641L19.2638 35.7972C18.6721 36.0837 18.1844 36.5474 17.8683 37.1237C17.5523 37.7001 17.4235 38.3606 17.5 39.0135L24.0103 99.8369C24.0952 100.637 24.4742 101.376 25.0738 101.912L56.8472 130.236C57.4455 130.752 58.2096 131.037 59 131.037C59.7905 131.037 60.5546 130.752 61.1528 130.236L93.0041 101.938C93.6036 101.402 93.9826 100.662 94.0675 99.8629L100.5 39.0135C100.582 38.3436 100.447 37.6651 100.116 37.0771C99.7844 36.4892 99.2738 36.0225 98.6585 35.7454L60.2969 17.5891C59.8743 17.4041 59.4166 17.3129 58.9554 17.3219C58.4942 17.3308 58.0404 17.4397 57.6253 17.641ZM93.9378 40.6216L87.7647 97.8916L59 123.466L30.2353 97.8916L24.1141 40.6216L59 24.1254L93.9378 40.6216Z" fill="#3968C6"/>
</svg>
