<svg width="56" height="56" viewBox="0 0 56 56" fill="none" xmlns="http://www.w3.org/2000/svg">
<path d="M36.0588 41.2863L36.0771 41.2885L45.8804 32.1186C46.4834 31.5154 47.2738 31.2129 48.0642 31.2129C48.8548 31.2129 49.6462 31.5154 50.2493 32.1186C51.4555 33.3247 51.4555 35.2803 50.2493 36.4876L35.9156 50.8203L16.6656 50.0977L13.956 52.8071L5.32666 44.1777L13.5554 35.9502L33.4762 38.1374C34.1516 38.1956 34.7599 38.4885 35.2176 38.9354C35.6765 39.3812 35.9844 39.9822 36.0588 40.6562C36.0825 40.8706 36.0825 41.0817 36.0588 41.2863Z" fill="#C6D8FE"/>
<path d="M47.9229 49.5762C49.1124 49.5762 50.0767 48.6119 50.0767 47.4224C50.0767 46.2329 49.1124 45.2686 47.9229 45.2686C46.7334 45.2686 45.769 46.2329 45.769 47.4224C45.769 48.6119 46.7334 49.5762 47.9229 49.5762Z" fill="white"/>
<path d="M7.00004 26.9609C8.19004 26.9609 9.15388 27.9248 9.15388 29.1148C9.15388 30.3037 8.19004 31.2686 7.00004 31.2686C5.81004 31.2686 4.84619 30.3037 4.84619 29.1148C4.84619 27.9248 5.81004 26.9609 7.00004 26.9609Z" fill="white"/>
<path d="M49.5382 10.8069C50.4304 10.8069 51.1536 10.0837 51.1536 9.19156C51.1536 8.2994 50.4304 7.57617 49.5382 7.57617C48.6461 7.57617 47.9229 8.2994 47.9229 9.19156C47.9229 10.0837 48.6461 10.8069 49.5382 10.8069Z" fill="white"/>
<path d="M44.8002 23.7303C45.9902 23.7303 46.954 24.6941 46.954 25.8841C46.954 27.073 45.9902 28.038 44.8002 28.038C43.6102 28.038 42.6463 27.073 42.6463 25.8841C42.6463 24.6941 43.6102 23.7303 44.8002 23.7303ZM44.8002 11.238L39.4543 17.4195C39.4531 16.1843 39.4457 14.9598 39.4661 13.6363C30.4006 9.85197 22.2365 10.0512 14.6463 13.2421C14.628 14.4418 14.6356 15.6598 14.6442 16.8778L14.6205 16.9554L9.26172 11.238L27.2076 3.19336L44.8002 11.238Z" fill="#C6D8FE"/>
<path d="M39.454 17.4188C39.4562 18.5733 39.4518 23.6466 39.4153 24.9142C31.1208 22.3436 22.8716 22.6063 14.646 24.9142C14.6665 23.5519 14.6547 18.2599 14.6439 16.8771C14.6353 15.6591 14.6277 14.4411 14.646 13.2414C22.2362 10.0505 30.4003 9.85126 39.4659 13.6356C39.4454 14.9591 39.453 16.1836 39.454 17.4188Z" fill="white"/>
<path d="M13.9558 53.8839C13.6801 53.8839 13.4047 53.7787 13.1943 53.5685L4.56494 44.9391C4.36302 44.7371 4.24951 44.4632 4.24951 44.1776C4.24951 43.892 4.36302 43.6181 4.56505 43.4161L12.7938 35.1886C13.0248 34.9576 13.3485 34.8443 13.6728 34.8796L33.5823 37.0655C34.4785 37.146 35.3261 37.536 35.97 38.1648C36.2809 38.4668 36.5375 38.8182 36.7312 39.2017L45.1323 31.3434C45.9181 30.5645 46.9586 30.1357 48.0642 30.1357C49.177 30.1357 50.2236 30.5694 51.0108 31.357C52.6345 32.9806 52.6346 35.6236 51.0111 37.2486L36.6769 51.5817C36.4649 51.7936 36.1736 51.9075 35.875 51.8964L17.0945 51.1913L14.7172 53.5685C14.507 53.7787 14.2314 53.8839 13.9558 53.8839ZM6.84953 44.1777L13.9558 51.284L15.9039 49.336C16.1157 49.124 16.406 49.009 16.7057 49.0213L35.4862 49.7264L49.4877 35.7257C50.2718 34.941 50.272 33.664 49.4877 32.8797C49.1071 32.4991 48.6015 32.2895 48.0641 32.2895C47.5275 32.2895 47.0223 32.4991 46.6417 32.8796C46.6333 32.8881 46.6247 32.8964 46.6159 32.9047L37.0552 41.8479C36.6436 43.6599 34.969 44.968 33.0638 44.8864L22.1363 44.4059C21.5421 44.3799 21.0816 43.877 21.1078 43.2827C21.1339 42.6886 21.639 42.2268 22.2309 42.2541L33.1574 42.7344C34.0834 42.7734 34.8879 42.0867 34.9881 41.1691C35.0032 41.0384 35.003 40.9078 34.9882 40.7742C34.9435 40.3694 34.7585 39.9908 34.467 39.7075C34.1737 39.4211 33.7896 39.2451 33.3836 39.2101C33.3753 39.2094 33.3669 39.2086 33.3585 39.2077L13.9513 37.0769L6.84953 44.1777Z" fill="#3968C6"/>
<path d="M16.6654 51.1744C16.3897 51.1744 16.1141 51.0692 15.9038 50.8588L11.0835 46.0373C10.663 45.6167 10.6631 44.9349 11.0836 44.5143C11.5043 44.0938 12.1861 44.0938 12.6066 44.5145L17.4269 49.3359C17.8474 49.7565 17.8473 50.4383 17.4268 50.8589C17.2166 51.0693 16.941 51.1744 16.6654 51.1744ZM39.4538 18.4962C39.2041 18.4962 38.9534 18.41 38.7498 18.2339C38.2998 17.8448 38.2505 17.1647 38.6397 16.7149L43.0458 11.6199L27.203 4.37529L11.0797 11.6028L15.1164 15.9097C15.5849 16.1377 15.831 16.6788 15.6738 17.1927L15.6501 17.2703C15.5377 17.6377 15.2381 17.9174 14.8637 18.0042C14.4898 18.091 14.0973 17.972 13.8345 17.6916L8.47574 11.9742C8.23774 11.7202 8.13716 11.3669 8.20565 11.0257C8.27414 10.6846 8.50342 10.3974 8.821 10.2551L26.7668 2.21046C27.0496 2.08371 27.3733 2.08479 27.6552 2.2138L45.2477 10.2584C45.556 10.3994 45.7799 10.6773 45.8521 11.0086C45.9242 11.3399 45.8362 11.6858 45.6144 11.9422L40.2686 18.1237C40.0559 18.37 39.7556 18.4962 39.4538 18.4962Z" fill="#3968C6"/>
<path d="M44.8 24.8073C44.2052 24.8073 43.7231 24.3252 43.7231 23.7304V11.1627C43.7231 10.5679 44.2052 10.0858 44.8 10.0858C45.3947 10.0858 45.8769 10.5679 45.8769 11.1627V23.7304C45.8769 24.3252 45.3947 24.8073 44.8 24.8073ZM14.6463 25.9919C14.4113 25.9919 14.1798 25.915 13.9892 25.7682C13.7199 25.5609 13.5643 25.2386 13.5695 24.8987C13.5894 23.5717 13.5783 18.3087 13.5672 16.8863C13.5597 15.8168 13.5502 14.4867 13.5695 13.2257C13.576 12.7982 13.8348 12.4151 14.2289 12.2494C18.18 10.5884 22.2514 9.74609 26.33 9.74609C30.7176 9.74609 35.2769 10.7206 39.881 12.6426C40.2874 12.8123 40.5496 13.2125 40.5428 13.653C40.5264 14.7237 40.5282 15.7469 40.5301 16.7364L40.5312 17.4185C40.5333 18.5986 40.5288 23.6708 40.492 24.946C40.4822 25.2825 40.3157 25.5952 40.0418 25.791C39.768 25.9867 39.4181 26.0433 39.0967 25.9436C35.2803 24.7608 31.324 24.161 27.3378 24.161C23.3444 24.161 19.1723 24.7636 14.9373 25.9517C14.8413 25.9788 14.7434 25.9919 14.6463 25.9919ZM15.715 13.9695C15.7076 14.9862 15.7148 16.0131 15.7208 16.8703C15.7294 17.9763 15.7381 21.4005 15.7321 23.511C19.6853 22.5127 23.5828 22.0073 27.3377 22.0073C31.0635 22.0073 34.7644 22.5042 38.3594 23.4857C38.3767 21.4912 38.379 18.3216 38.3772 17.4215L38.3762 16.7405C38.3747 15.9697 38.3733 15.1788 38.3804 14.3572C34.2705 12.7264 30.2198 11.9 26.3299 11.9C22.7626 11.9 19.195 12.596 15.715 13.9695Z" fill="#3968C6"/>
</svg>
