<svg width="28" height="28" viewBox="0 0 28 28" fill="none" xmlns="http://www.w3.org/2000/svg">
<g clip-path="url(#clip0_147_2921)">
<path d="M26.8333 12.833H1.16667C0.522334 12.833 0 13.3553 0 13.9997C0 14.644 0.522334 15.1664 1.16667 15.1664H26.8333C27.4777 15.1664 28 14.644 28 13.9997C28 13.3553 27.4777 12.833 26.8333 12.833Z" fill="#374957"/>
<path d="M26.8333 4.66699H1.16667C0.522334 4.66699 0 5.18933 0 5.83366C0 6.47799 0.522334 7.00032 1.16667 7.00032H26.8333C27.4777 7.00032 28 6.47799 28 5.83366C28 5.18933 27.4777 4.66699 26.8333 4.66699Z" fill="#374957"/>
<path d="M26.8333 21H1.16667C0.522334 21 0 21.5223 0 22.1667C0 22.811 0.522334 23.3333 1.16667 23.3333H26.8333C27.4777 23.3333 28 22.811 28 22.1667C28 21.5223 27.4777 21 26.8333 21Z" fill="#374957"/>
</g>
<defs>
<clipPath id="clip0_147_2921">
<rect width="28" height="28" fill="white"/>
</clipPath>
</defs>
</svg>
