<svg width="56" height="56" viewBox="0 0 56 56" fill="none" xmlns="http://www.w3.org/2000/svg">
<path d="M44.73 54.2502H1.75V52.8035C1.75 50.4818 3.62833 48.6035 5.95 48.6035H40.5417C42.8633 48.6035 44.7417 50.4818 44.7417 52.8035V54.2502H44.73Z" fill="#F6D8F4"/>
<path d="M44.7302 55.4166H1.75016C1.1085 55.4166 0.583496 54.8916 0.583496 54.2499V52.8032C0.583496 49.8516 2.98683 47.4482 5.95016 47.4482H40.5418C43.4935 47.4482 45.9085 49.8516 45.9085 52.8032V54.2499C45.8968 54.8916 45.3718 55.4166 44.7302 55.4166ZM2.91683 53.0832H43.5635V52.8032C43.5635 51.1349 42.2102 49.7816 40.5302 49.7816H5.95016C4.28183 49.7816 2.91683 51.1349 2.91683 52.8032V53.0832Z" fill="#8B3D87"/>
<path d="M28 42.4785H7.20996V48.6035H28V42.4785Z" fill="white"/>
<path d="M28.0001 49.7816H7.21012C6.56846 49.7816 6.04346 49.2566 6.04346 48.6149V42.4899C6.04346 41.8482 6.56846 41.3232 7.21012 41.3232H28.0001C28.6418 41.3232 29.1668 41.8482 29.1668 42.4899V48.6149C29.1668 49.2566 28.6535 49.7816 28.0001 49.7816ZM8.37679 47.4482H26.8335V43.6566H8.37679V47.4482Z" fill="#8B3D87"/>
<path d="M36.2134 11.7718L22.61 1.91344C22.2134 1.63344 21.665 1.71511 21.385 2.11177L20.055 3.94344C19.775 4.34011 19.8567 4.88844 20.2534 5.16844L33.8567 15.0268C34.2534 15.3068 34.8017 15.2251 35.0817 14.8284L36.4117 12.9968C36.6917 12.6118 36.61 12.0634 36.2134 11.7718Z" fill="#F6D8F4"/>
<path d="M34.3581 16.3687C33.9265 16.3687 33.5181 16.2287 33.1564 15.9721L19.5648 6.12539C19.1214 5.81039 18.8298 5.33205 18.7481 4.79539C18.6664 4.25872 18.7948 3.71039 19.1098 3.26705L20.4398 1.43539C20.7664 0.992054 21.2331 0.700387 21.7814 0.61872C22.3181 0.537054 22.8664 0.665387 23.3098 0.980387L36.9131 10.8387C37.3564 11.1654 37.6481 11.6321 37.7298 12.1804C37.8115 12.7171 37.6831 13.2654 37.3681 13.7087L36.0381 15.5404C35.7114 15.9837 35.2448 16.2754 34.6964 16.3571C34.5798 16.3571 34.4748 16.3687 34.3581 16.3687ZM21.1631 4.39872L34.2998 13.9187L35.2915 12.5537L22.1548 3.03372L21.1631 4.39872Z" fill="#8B3D87"/>
<path d="M22.3652 30.8821L8.7619 21.0238C8.36523 20.7438 7.8169 20.8255 7.5369 21.2221L6.2069 23.0538C5.9269 23.4505 6.00856 23.9988 6.40523 24.2788L20.0086 34.1371C20.4052 34.4171 20.9536 34.3355 21.2336 33.9388L22.5636 32.1071C22.8552 31.7105 22.7619 31.1621 22.3652 30.8821Z" fill="#F6D8F4"/>
<path d="M20.5216 35.467C20.1016 35.467 19.6816 35.3387 19.32 35.082L5.71664 25.2237C5.2733 24.9087 4.98164 24.4304 4.89997 23.8937C4.8183 23.357 4.94664 22.8087 5.26164 22.3654L6.59164 20.5337C7.25664 19.6237 8.53997 19.4137 9.44997 20.0787L23.0533 29.937C23.9633 30.602 24.1733 31.8854 23.5083 32.7954L22.1783 34.627C21.7816 35.1754 21.1516 35.467 20.5216 35.467ZM7.32664 23.497L20.4633 33.017L21.455 31.652L8.3183 22.132L7.32664 23.497ZM21.6766 31.8154C21.6883 31.8154 21.6883 31.8154 21.6766 31.8154V31.8154Z" fill="#8B3D87"/>
<path d="M33.0774 14.4802L21.0039 5.73145L9.52379 21.5743L21.5972 30.323L33.0774 14.4802Z" fill="white"/>
<path d="M21.6068 31.4879C21.3735 31.4879 21.1285 31.4179 20.9185 31.2662L8.84346 22.5162C8.59846 22.3296 8.42346 22.0612 8.37679 21.7579C8.33013 21.4546 8.40013 21.1396 8.58679 20.8946L20.0668 5.05123C20.4401 4.52623 21.1751 4.40956 21.7001 4.79456L33.7751 13.5446C34.0201 13.7312 34.1951 13.9996 34.2418 14.3029C34.2885 14.6062 34.2185 14.9212 34.0318 15.1662L22.5518 31.0096C22.3185 31.3246 21.9685 31.4879 21.6068 31.4879ZM11.1651 21.3146L21.3501 28.6879L31.4651 14.7346L21.2801 7.36123L11.1651 21.3146Z" fill="#8B3D87"/>
<path d="M51.1378 35.711L29.2109 19.8223L26.192 23.9885L48.1188 39.8772L51.1378 35.711Z" fill="#F6D8F4"/>
<path d="M48.1251 41.043C47.8918 41.043 47.6468 40.973 47.4368 40.8213L25.5151 24.9313C24.9901 24.558 24.8734 23.823 25.2584 23.298L28.2801 19.133C28.4668 18.888 28.7351 18.713 29.0384 18.6663C29.3418 18.6197 29.6568 18.6897 29.9018 18.8763L51.8234 34.7663C52.3484 35.1397 52.4651 35.8747 52.0801 36.3997L49.0584 40.5647C48.8368 40.868 48.4868 41.043 48.1251 41.043ZM27.8251 23.7297L47.8568 38.243L49.5018 35.968L29.4701 21.443L27.8251 23.7297Z" fill="#8B3D87"/>
<path d="M53.4916 35.6073C52.6633 35.0123 51.5083 35.199 50.9133 36.0157L48.3583 39.5507C47.7633 40.379 47.95 41.534 48.7666 42.129C49.595 42.724 50.75 42.5373 51.345 41.7207L53.9 38.1857C54.495 37.369 54.3083 36.214 53.4916 35.6073Z" fill="white"/>
<path d="M49.8401 43.6454C49.2335 43.6454 48.6151 43.4587 48.0785 43.0737C47.4251 42.6071 46.9935 41.9071 46.8768 41.1137C46.7485 40.3204 46.9351 39.5271 47.4135 38.8737L49.9801 35.3387C50.4468 34.6854 51.1468 34.2537 51.9401 34.1371C52.7335 34.0087 53.5268 34.1954 54.1801 34.6737C54.8335 35.1404 55.2651 35.8404 55.3818 36.6337C55.5101 37.4271 55.3235 38.2204 54.8451 38.8737L52.2901 42.4087C51.6951 43.2137 50.7735 43.6454 49.8401 43.6454ZM52.4068 36.4237C52.3718 36.4237 52.3368 36.4237 52.3018 36.4354C52.1268 36.4587 51.9635 36.5637 51.8585 36.7037L49.2918 40.2387C49.1868 40.3904 49.1401 40.5654 49.1751 40.7404C49.2101 40.9154 49.3035 41.0787 49.4435 41.1837C49.7468 41.4054 50.1668 41.3354 50.3885 41.0321L52.9435 37.4971C53.0485 37.3454 53.0951 37.1704 53.0601 36.9954C53.0368 36.8204 52.9318 36.6571 52.7918 36.5521C52.6868 36.4704 52.5468 36.4237 52.4068 36.4237Z" fill="#8B3D87"/>
</svg>
