<svg width="7" height="12" viewBox="0 0 7 12" fill="none" xmlns="http://www.w3.org/2000/svg">
<path d="M6.78016 5.28015C6.92086 5.42066 6.99999 5.6113 7.00016 5.81015L7.00016 6.19015C6.99786 6.38856 6.91905 6.57843 6.78016 6.72015L1.64016 11.8501C1.54628 11.9448 1.41848 11.998 1.28516 11.998C1.15185 11.998 1.02405 11.9448 0.930165 11.8501L0.220165 11.1401C0.126101 11.048 0.0730933 10.9218 0.0730933 10.7901C0.0730933 10.6585 0.126101 10.5323 0.220165 10.4401L4.67016 6.00015L0.220164 1.56015C0.125508 1.46626 0.0722652 1.33847 0.0722652 1.20515C0.0722651 1.07183 0.125508 0.944031 0.220164 0.850147L0.930164 0.150147C1.02405 0.0554914 1.15185 0.00224872 1.28516 0.00224871C1.41848 0.00224871 1.54628 0.0554914 1.64016 0.150147L6.78016 5.28015Z" fill="#2B2B2B"/>
</svg>
