<svg width="114" height="114" viewBox="0 0 114 114" fill="none" xmlns="http://www.w3.org/2000/svg">
<g opacity="0.34">
<circle cx="3.35293" cy="3.35293" r="3.35293" fill="#F59179"/>
<circle cx="30.1762" cy="3.35293" r="3.35293" fill="#F59179"/>
<circle cx="56.9999" cy="3.35293" r="3.35293" fill="#F59179"/>
<circle cx="83.8236" cy="3.35293" r="3.35293" fill="#F59179"/>
<circle cx="110.647" cy="3.35293" r="3.35293" fill="#F59179"/>
<circle cx="3.35293" cy="30.1771" r="3.35293" fill="#F59179"/>
<circle cx="30.1762" cy="30.1771" r="3.35293" fill="#F59179"/>
<circle cx="56.9999" cy="30.1771" r="3.35293" fill="#F59179"/>
<circle cx="83.8236" cy="30.1771" r="3.35293" fill="#F59179"/>
<circle cx="110.647" cy="30.1771" r="3.35293" fill="#F59179"/>
<circle cx="3.35293" cy="57.0004" r="3.35293" fill="#F59179"/>
<circle cx="30.1762" cy="57.0004" r="3.35293" fill="#F59179"/>
<circle cx="56.9999" cy="57.0004" r="3.35293" fill="#F59179"/>
<circle cx="83.8236" cy="57.0004" r="3.35293" fill="#F59179"/>
<circle cx="110.647" cy="57.0004" r="3.35293" fill="#F59179"/>
<circle cx="3.35293" cy="83.8236" r="3.35293" fill="#F59179"/>
<circle cx="30.1762" cy="83.8236" r="3.35293" fill="#F59179"/>
<circle cx="56.9999" cy="83.8236" r="3.35293" fill="#F59179"/>
<circle cx="83.8236" cy="83.8236" r="3.35293" fill="#F59179"/>
<circle cx="110.647" cy="83.8236" r="3.35293" fill="#F59179"/>
<circle cx="3.35293" cy="110.648" r="3.35293" fill="#F59179"/>
<circle cx="30.1762" cy="110.648" r="3.35293" fill="#F59179"/>
<circle cx="56.9999" cy="110.648" r="3.35293" fill="#F59179"/>
<circle cx="83.8236" cy="110.648" r="3.35293" fill="#F59179"/>
<circle cx="110.647" cy="110.648" r="3.35293" fill="#F59179"/>
</g>
</svg>
