<svg width="1440" height="806" viewBox="0 0 1440 806" fill="none" xmlns="http://www.w3.org/2000/svg">
<rect width="1440" height="806" fill="#FAFAFD"/>
<g opacity="0.02">
<path d="M126.753 349H64.406C-15.8673 349 -81 414.056 -81 494.234V788.054C-81 797.898 -73.0012 805.887 -63.1456 805.887H126.753C276.373 805.887 379 715.794 379 577.408C379.071 439.022 276.444 349 126.753 349ZM61.4064 435.812H67.4055C99.3291 437.453 124.397 464.488 122.897 496.944C121.611 526.12 97.7579 550.658 68.6196 552.656C48.9084 554.011 31.1254 545.665 19.4844 531.898C10.8429 521.626 6.84349 508.286 6.84349 494.876V493.735C6.84349 480.538 10.7715 467.341 19.1273 457.141C29.2686 444.8 44.4091 436.668 61.4064 435.812ZM121.54 719.075H10.4144C8.41467 719.075 6.84349 717.506 6.84349 715.509V630.408C6.84349 629.124 8.12901 628.34 9.27168 628.768C26.269 635.687 44.8376 639.539 64.406 639.539C144.751 639.539 209.883 574.555 209.883 494.234C209.883 482.107 208.384 470.337 205.598 459.067C205.241 457.569 206.884 456.285 208.241 457.069C248.306 480.538 271.874 522.41 271.874 577.408C271.874 664.862 212.454 719.075 121.54 719.075Z" fill="#3968C6"/>
</g>
</svg>
