<svg width="56" height="56" viewBox="0 0 56 56" fill="none" xmlns="http://www.w3.org/2000/svg">
<path d="M14.9365 15.3128L17.3778 36.0328L28.0615 45.0278L39.034 35.7528L41.0903 15.409L27.6853 9.03027L14.9365 15.3128Z" fill="#D8F1ED"/>
<path d="M47.0313 11.2613L28.4638 2.51129C28.319 2.44214 28.1606 2.40625 28.0001 2.40625C27.8396 2.40625 27.6812 2.44214 27.5363 2.51129L8.96884 11.2613C8.76461 11.359 8.59543 11.5173 8.48428 11.7145C8.37313 11.9118 8.32541 12.1385 8.34759 12.3638L11.1651 38.6138C11.1912 38.8843 11.3195 39.1346 11.5238 39.3138L27.2738 53.3138C27.4731 53.4933 27.7319 53.5927 28.0001 53.5927C28.2683 53.5927 28.5271 53.4933 28.7263 53.3138L44.4763 39.3138C44.6807 39.1346 44.809 38.8843 44.8351 38.6138L47.6526 12.3638C47.6748 12.1385 47.6271 11.9118 47.5159 11.7145C47.4048 11.5173 47.2356 11.359 47.0313 11.2613ZM42.7088 37.9663L28.0001 51.0388L13.2913 37.9663L10.6138 12.9063L28.0001 4.70754L45.3863 12.9063L42.7088 37.9663Z" fill="#36A692"/>
<path d="M27.5362 8.31293L14.5949 14.4379C14.3953 14.5346 14.2308 14.691 14.1242 14.8854C14.0176 15.0799 13.9741 15.3027 13.9999 15.5229L16.1962 36.0417C16.2248 36.3114 16.3527 36.5609 16.5549 36.7417L27.2737 46.2967C27.4755 46.471 27.7333 46.5668 27.9999 46.5668C28.2666 46.5668 28.5244 46.471 28.7262 46.2967L39.4712 36.7504C39.6734 36.5697 39.8013 36.3202 39.8299 36.0504L41.9999 15.5229C42.0275 15.2969 41.9821 15.068 41.8703 14.8697C41.7585 14.6714 41.5863 14.5139 41.3787 14.4204L28.4374 8.29543C28.2949 8.23302 28.1405 8.20226 27.9849 8.20528C27.8293 8.2083 27.6762 8.24503 27.5362 8.31293ZM39.7862 16.0654L37.7037 35.3854L27.9999 44.0129L18.2962 35.3854L16.2312 16.0654L27.9999 10.5004L39.7862 16.0654Z" fill="#36A692"/>
</svg>
