<svg width="379" height="457" viewBox="0 0 379 457" fill="none" xmlns="http://www.w3.org/2000/svg">
<path d="M126.753 0H64.406C-15.8673 0 -81 65.0556 -81 145.234V439.054C-81 448.898 -73.0012 456.887 -63.1456 456.887H126.753C276.373 456.887 379 366.794 379 228.408C379.071 90.0222 276.444 0 126.753 0ZM61.4064 86.8122H67.4055C99.3291 88.4528 124.397 115.488 122.897 147.944C121.611 177.12 97.7579 201.658 68.6196 203.656C48.9084 205.011 31.1254 196.665 19.4844 182.898C10.8429 172.626 6.84349 159.286 6.84349 145.876V144.735C6.84349 131.538 10.7715 118.341 19.1273 108.141C29.2686 95.8001 44.4091 87.6682 61.4064 86.8122ZM121.54 370.075H10.4144C8.41467 370.075 6.84349 368.506 6.84349 366.509V281.408C6.84349 280.124 8.12901 279.34 9.27168 279.768C26.269 286.687 44.8376 290.539 64.406 290.539C144.751 290.539 209.883 225.555 209.883 145.234C209.883 133.107 208.384 121.337 205.598 110.067C205.241 108.569 206.884 107.285 208.241 108.069C248.306 131.538 271.874 173.41 271.874 228.408C271.874 315.862 212.454 370.075 121.54 370.075Z" fill="#3968C6"/>
</svg>
