<svg width="273" height="448" viewBox="0 0 273 448" fill="none" xmlns="http://www.w3.org/2000/svg">
<path opacity="0.12" d="M90.1884 20.5893L33.5284 5.40726C-39.4221 -14.1398 -114.474 29.1912 -134.021 102.142L-205.652 369.475C-208.052 378.432 -202.731 387.649 -193.774 390.049L-21.1984 436.29C114.773 472.724 230.002 415.742 263.74 289.831C297.542 163.937 226.224 57.0399 90.1884 20.5893ZM9.63814 83.6633L15.09 85.1241C43.7014 94.3905 59.8912 125.093 50.6155 154.258C42.3345 180.49 14.6747 197.008 -12.2925 191.73C-30.536 188.164 -44.6621 176.24 -51.8848 160.879C-57.2338 149.429 -57.6163 136.318 -54.3469 124.116L-54.0686 123.078C-50.8514 111.071 -44.0644 100.02 -33.984 92.774C-21.7592 84.0153 -6.01736 80.3032 9.63814 83.6633ZM-4.77194 356.034L-105.76 328.975C-107.578 328.488 -108.623 326.677 -108.136 324.86L-87.389 247.431C-87.076 246.263 -85.7164 245.862 -84.7823 246.53C-71.0224 256.964 -55.0868 264.991 -37.3035 269.756C35.7119 289.32 110.746 246.054 130.328 172.974C133.284 161.94 134.791 150.866 135.007 139.933C135.048 138.483 136.854 137.715 137.896 138.759C168.584 169.868 179.794 213.705 166.386 263.745C145.065 343.316 77.8491 378.173 -4.77194 356.034Z" fill="#F5CE71"/>
</svg>
