<svg width="317" height="448" viewBox="0 0 317 448" fill="none" xmlns="http://www.w3.org/2000/svg">
<path opacity="0.12" d="M297.188 20.5893L240.528 5.40726C167.578 -14.1398 92.5265 29.1912 72.9795 102.142L1.34758 369.475C-1.05232 378.432 4.26902 387.649 13.2256 390.049L185.802 436.29C321.773 472.724 437.002 415.742 470.74 289.831C504.542 163.937 433.224 57.0399 297.188 20.5893ZM216.638 83.6633L222.09 85.1241C250.701 94.3905 266.891 125.093 257.616 154.258C249.335 180.49 221.675 197.008 194.708 191.73C176.464 188.164 162.338 176.24 155.115 160.879C149.766 149.429 149.384 136.318 152.653 124.116L152.931 123.078C156.149 111.071 162.936 100.02 173.016 92.774C185.241 84.0153 200.983 80.3032 216.638 83.6633ZM202.228 356.034L101.24 328.975C99.4223 328.488 98.3771 326.677 98.864 324.86L119.611 247.431C119.924 246.263 121.284 245.862 122.218 246.53C135.978 256.964 151.913 264.991 169.696 269.756C242.712 289.32 317.746 246.054 337.328 172.974C340.284 161.94 341.791 150.866 342.007 139.933C342.048 138.483 343.854 137.715 344.896 138.759C375.584 169.868 386.794 213.705 373.386 263.745C352.065 343.316 284.849 378.173 202.228 356.034Z" fill="#F59179"/>
</svg>
