<svg width="131" height="29" viewBox="0 0 131 29" fill="none" xmlns="http://www.w3.org/2000/svg">
<path d="M24.2852 14.4492C24.2852 17.6654 23.6667 20.3542 22.4297 22.5156C21.2057 24.6641 19.4284 26.2852 17.0977 27.3789C14.7669 28.4596 11.9609 29 8.67969 29H0.59375V0.445312H9.55859C12.5534 0.445312 15.151 0.979167 17.3516 2.04688C19.5521 3.10156 21.2578 4.67057 22.4688 6.75391C23.6797 8.82422 24.2852 11.3893 24.2852 14.4492ZM17.9961 14.6055C17.9961 12.4961 17.6836 10.7643 17.0586 9.41016C16.4466 8.04297 15.5352 7.03385 14.3242 6.38281C13.1263 5.73177 11.6419 5.40625 9.87109 5.40625H6.64844V24H9.24609C12.2018 24 14.3958 23.2122 15.8281 21.6367C17.2734 20.0612 17.9961 17.7174 17.9961 14.6055ZM46.6484 29H30.2031V0.445312H46.6484V5.40625H36.2578V11.6758H45.9258V16.6367H36.2578V24H46.6484V29ZM70.1055 29L68.0352 22.2031H57.625L55.5547 29H49.0312L59.1094 0.328125H66.5117L76.6289 29H70.1055ZM66.5898 17.125L64.5195 10.4844C64.3893 10.0417 64.2135 9.47526 63.9922 8.78516C63.7839 8.08203 63.569 7.3724 63.3477 6.65625C63.1393 5.92708 62.9701 5.29557 62.8398 4.76172C62.7096 5.29557 62.5273 5.95964 62.293 6.75391C62.0716 7.53516 61.8568 8.27734 61.6484 8.98047C61.4401 9.68359 61.2904 10.1849 61.1992 10.4844L59.1484 17.125H66.5898ZM89.3633 0.445312C93.0482 0.445312 95.737 1.23958 97.4297 2.82812C99.1224 4.40365 99.9688 6.57812 99.9688 9.35156C99.9688 10.6016 99.7799 11.7995 99.4023 12.9453C99.0247 14.0781 98.4062 15.0872 97.5469 15.9727C96.7005 16.8581 95.5677 17.5612 94.1484 18.082C92.7292 18.5898 90.9779 18.8438 88.8945 18.8438H86.2969V29H80.2422V0.445312H89.3633ZM89.0508 5.40625H86.2969V13.8828H88.2891C89.4219 13.8828 90.4049 13.7331 91.2383 13.4336C92.0716 13.1341 92.7161 12.6654 93.1719 12.0273C93.6276 11.3893 93.8555 10.569 93.8555 9.56641C93.8555 8.16016 93.4648 7.11849 92.6836 6.44141C91.9023 5.7513 90.6914 5.40625 89.0508 5.40625ZM130.691 29H122.996L110.574 7.39844H110.398C110.451 8.29688 110.496 9.20182 110.535 10.1133C110.574 11.0247 110.613 11.9362 110.652 12.8477C110.691 13.7461 110.73 14.651 110.77 15.5625V29H105.359V0.445312H112.996L125.398 21.832H125.535C125.509 20.9466 125.477 20.0677 125.438 19.1953C125.398 18.3229 125.359 17.4505 125.32 16.5781C125.294 15.7057 125.268 14.8333 125.242 13.9609V0.445312H130.691V29Z" fill="#3968C6"/>
</svg>
