<svg width="56" height="56" viewBox="0 0 56 56" fill="none" xmlns="http://www.w3.org/2000/svg">
<path fill-rule="evenodd" clip-rule="evenodd" d="M9.07843 18.9597C11.1314 18.9597 12.8013 20.6303 12.8013 22.6832C12.8013 24.7364 11.1316 26.4061 9.07843 26.4061C7.02557 26.4061 5.35498 24.7362 5.35498 22.6832C5.35498 20.6306 7.02579 18.9597 9.07843 18.9597ZM24.2771 5.94849C24.2771 3.89541 25.9469 2.22559 28 2.22559C30.0532 2.22559 31.7229 3.89541 31.7229 5.94849C31.7229 8.00212 30.0536 9.6714 28 9.6714C25.9464 9.6714 24.2771 8.00223 24.2771 5.94849ZM31.7229 41.6046C31.7229 43.6571 30.0548 45.327 27.9978 45.3275C25.945 45.327 24.277 43.6571 24.277 41.6046C24.277 39.5518 25.947 37.8817 27.9999 37.8817C30.0529 37.8817 31.7229 39.5519 31.7229 41.6046ZM43.1985 22.6832C43.1985 20.6301 44.8688 18.9597 46.922 18.9597C48.9752 18.9597 50.6449 20.6301 50.6449 22.6832C50.6449 24.7366 48.9754 26.4061 46.922 26.4061C44.8687 26.4061 43.1985 24.7366 43.1985 22.6832Z" fill="#FFF0E0"/>
<path fill-rule="evenodd" clip-rule="evenodd" d="M35.2327 52.078C34.2461 48.8916 31.3404 46.7513 28.0019 46.7503C28.0009 46.7503 28.0009 46.7503 27.9998 46.7503C27.9987 46.7503 27.9987 46.7503 27.9977 46.7503C24.6586 46.7514 21.7535 48.8917 20.7669 52.078C20.6663 52.4046 20.7221 52.7473 20.9223 53.0187C21.1224 53.2896 21.4331 53.4459 21.7752 53.4459H34.2243C34.5665 53.4459 34.8771 53.2896 35.0772 53.0187C35.2765 52.7473 35.3333 52.4046 35.2327 52.078ZM27.9977 45C27.9987 45 27.9987 45 27.9998 45C28.0008 45 28.0008 45 28.0019 45C29.8734 44.9995 31.3947 43.4767 31.3947 41.6052C31.3947 39.7341 29.8724 38.2104 27.9999 38.2104C26.1273 38.2104 24.605 39.7341 24.605 41.6052C24.605 43.4767 26.1262 44.9994 27.9977 45ZM36.904 51.5605C37.1723 52.4232 37.0191 53.3336 36.4861 54.0574C35.9526 54.7804 35.128 55.1962 34.2244 55.1962H21.7752C20.8706 55.1962 20.047 54.7804 19.5135 54.0574C18.981 53.3335 18.8277 52.4232 19.0956 51.5605C19.6709 49.7002 20.8511 48.029 22.4186 46.8566C23.138 46.3168 23.9191 45.8917 24.7417 45.5847C23.591 44.6403 22.8547 43.208 22.8547 41.6052C22.8547 38.7692 25.1628 36.4601 27.9998 36.4601C30.8373 36.4601 33.1449 38.7692 33.1449 41.6052C33.1449 43.2078 32.4086 44.6403 31.2584 45.5847C32.0804 45.8917 32.8616 46.3169 33.5814 46.8566C35.1476 48.0289 36.3276 49.7002 36.904 51.5605ZM2.85373 34.5245H15.3025C15.6451 34.5245 15.9558 34.368 16.1559 34.0967C16.3556 33.8252 16.4118 33.4832 16.3107 33.156C15.3246 29.9701 12.4174 27.8282 9.07826 27.8282C5.7386 27.8282 2.83141 29.9701 1.84485 33.156C1.74423 33.4831 1.80001 33.8252 2.00016 34.0967C2.20043 34.368 2.51105 34.5245 2.85373 34.5245ZM5.68293 22.6836C5.68293 24.5557 7.20674 26.0784 9.07826 26.0784C10.9503 26.0784 12.473 24.5557 12.473 22.6836C12.473 20.8121 10.9503 19.2883 9.07826 19.2883C7.20674 19.2883 5.68293 20.812 5.68293 22.6836ZM15.3023 36.2742H2.85373C1.94919 36.2742 1.12505 35.8588 0.591522 35.136C0.0589754 34.412 -0.0942589 33.5018 0.1736 32.6391C0.74946 30.7784 1.92907 29.107 3.49674 27.9346C4.21665 27.3954 4.99726 26.9697 5.81976 26.6627C4.66913 25.7189 3.93271 24.286 3.93271 22.6837C3.93271 19.8472 6.24085 17.5386 9.07837 17.5386C11.9153 17.5386 14.2229 19.8472 14.2229 22.6837C14.2229 24.286 13.4871 25.7189 12.3364 26.6627C13.1589 26.9697 13.9396 27.3954 14.6594 27.9346C16.2255 29.107 17.4056 30.7784 17.982 32.6391C18.2503 33.5018 18.0971 34.412 17.5646 35.136C17.0305 35.8588 16.2059 36.2742 15.3023 36.2742ZM54.1548 33.156C53.1682 29.9701 50.261 27.8282 46.9219 27.8282C43.5828 27.8282 40.6756 29.9701 39.6885 33.156C39.5884 33.4831 39.6441 33.8252 39.8443 34.0967C40.0446 34.368 40.3547 34.5245 40.6974 34.5245H53.1465C53.4887 34.5245 53.7993 34.368 53.9995 34.0967C54.1986 33.8252 54.2554 33.4831 54.1548 33.156ZM43.5265 22.6836C43.5265 24.5557 45.0492 26.0784 46.9218 26.0784C48.7944 26.0784 50.3166 24.5557 50.3166 22.6836C50.3166 20.8121 48.7943 19.2883 46.9218 19.2883C45.0492 19.2883 43.5265 20.812 43.5265 22.6836ZM55.4081 35.136C54.8745 35.8588 54.0494 36.2742 53.1464 36.2742H40.6973C39.7927 36.2742 38.9691 35.8588 38.4356 35.136C37.9025 34.412 37.7498 33.5018 38.0177 32.6391C38.593 30.7784 39.7731 29.107 41.3403 27.9346C42.0602 27.3954 42.8408 26.9697 43.6638 26.6627C42.5131 25.7189 41.7768 24.286 41.7768 22.6837C41.7768 19.8472 44.0849 17.5386 46.9219 17.5386C49.7589 17.5386 52.067 19.8472 52.067 22.6837C52.067 24.286 51.3307 25.7189 50.18 26.6627C51.0025 26.9697 51.7837 27.3954 52.503 27.9346C54.0695 29.107 55.2497 30.7784 55.8261 32.6391C56.0939 33.5017 55.9406 34.4119 55.4081 35.136ZM20.9223 17.3625C21.1224 17.6335 21.4331 17.7898 21.7752 17.7898H34.2243C34.5665 17.7898 34.8771 17.6335 35.0772 17.3625C35.2764 17.0912 35.3332 16.7485 35.2325 16.4219C34.246 13.2355 31.3387 11.0941 27.9997 11.0941C24.6606 11.0941 21.7534 13.2356 20.7667 16.4219C20.6663 16.7485 20.722 17.0911 20.9223 17.3625ZM24.605 5.94893C24.605 7.82154 26.1273 9.34371 27.9999 9.34371C29.8725 9.34371 31.3947 7.82143 31.3947 5.94893C31.3947 4.07741 29.8724 2.55415 27.9999 2.55415C26.1272 2.55415 24.605 4.07741 24.605 5.94893ZM19.0956 15.9042C19.6709 14.044 20.8511 12.3726 22.4186 11.1998C23.138 10.6606 23.9191 10.2354 24.7417 9.92832C23.591 8.98409 22.8547 7.55105 22.8547 5.94882C22.8547 3.11284 25.1628 0.803711 27.9998 0.803711C30.8373 0.803711 33.1449 3.11284 33.1449 5.94882C33.1449 7.55105 32.4086 8.98398 31.2584 9.92832C32.0804 10.2353 32.8616 10.6606 33.5814 11.1998C35.1476 12.3727 36.3276 14.0441 36.904 15.9042C37.1723 16.767 37.0191 17.6772 36.4861 18.4012C35.9526 19.1241 35.128 19.54 34.2244 19.54H21.7752C20.8706 19.54 20.047 19.1241 19.5135 18.4012C18.9811 17.6773 18.8277 16.7671 19.0956 15.9042ZM19.7989 46.8988C19.6833 46.8988 19.5661 46.8761 19.4531 46.8282C16.145 45.4061 13.2125 43.1541 10.9746 40.3156C10.6748 39.9363 10.7403 39.3858 11.1191 39.0876C11.4984 38.7878 12.0484 38.8523 12.3482 39.2321C14.4066 41.8426 17.1027 43.9133 20.1446 45.2188C20.5889 45.4102 20.7943 45.9247 20.6029 46.3685C20.4609 46.7002 20.1379 46.8988 19.7989 46.8988ZM35.855 8.59394C35.4113 8.40199 35.2053 7.88804 35.3967 7.4443C35.5871 7.00002 36.1011 6.79418 36.5454 6.98613C39.9898 8.46455 43.0105 10.8314 45.2819 13.8305C45.5741 14.2159 45.4987 14.765 45.1137 15.0565C44.9553 15.1757 44.7706 15.234 44.5853 15.234C44.3206 15.234 44.0594 15.1148 43.8876 14.8873C41.7989 12.1297 39.0206 9.95315 35.855 8.59394ZM10.8859 15.0565C10.5009 14.765 10.4256 14.2159 10.7167 13.8305C12.9892 10.8314 16.0104 8.46455 19.4532 6.98613C19.8975 6.79418 20.4125 7.00002 20.6029 7.4443C20.7943 7.88804 20.5889 8.40199 20.1446 8.59394C16.9794 9.95315 14.2013 12.1297 12.1119 14.8873C11.9395 15.1149 11.6779 15.234 11.4132 15.234C11.2296 15.234 11.0437 15.1757 10.8859 15.0565ZM45.025 40.3156C42.785 43.1552 39.8541 45.4061 36.5454 46.8266C36.4329 46.8762 36.3158 46.8988 36.2007 46.8988C35.8617 46.8988 35.5392 46.7002 35.3967 46.3683C35.2053 45.9246 35.4112 45.4101 35.855 45.2187C38.8958 43.9132 41.5919 41.8425 43.6504 39.232C43.9502 38.8522 44.5002 38.7877 44.88 39.0875C45.2593 39.3857 45.3237 39.9363 45.025 40.3156Z" fill="#F4B572"/>
</svg>
