<svg width="513" height="327" viewBox="0 0 513 327" fill="none" xmlns="http://www.w3.org/2000/svg">
<g opacity="0.8">
<path d="M496.237 326.123C496.237 326.123 558.781 192.934 435.515 192.934C370.385 192.934 397.215 156.391 352.935 114.1C308.655 71.809 153.802 38.0205 120.841 119.686C87.8817 201.352 169.335 263.356 90.6273 252.719C-3.95697 239.937 0.0239868 326.121 0.0239868 326.121H496.237V326.123Z" fill="#FBECDB" fill-opacity="0.47"/>
<path d="M188.609 303.806H90.3325V325.997H188.609V303.806Z" fill="#1D51B5"/>
<path d="M158.304 303.806H60.0308V325.999H158.304V303.806Z" fill="#1D51B5"/>
<path d="M227.268 325.991H300.445V223.71H227.268V325.991Z" fill="#D86713"/>
<path d="M204.702 325.991H277.879V223.71H204.702V325.991Z" fill="#F1A34F"/>
<path d="M277.879 223.71L300.442 239.068V223.71H277.879Z" fill="#C95C12"/>
<path d="M343.172 79.3093C342.04 79.1365 338.631 82.2903 338.631 82.2903C331.352 83.1323 320.708 85.0645 316.878 85.8018C314.162 86.325 306.859 83.8356 299.724 80.9762C291.239 77.5742 282.994 73.6514 282.994 73.6514C278.285 73.4105 272.939 82.0007 282.488 87.4639C283.946 88.2986 289.423 89.7197 295.728 91.0192C295.728 91.0192 295.728 91.0192 295.731 91.0192C304.431 92.8127 314.707 94.3677 318.207 93.8201C322.27 93.185 333.774 88.9775 340.616 85.7531C340.616 85.7531 340.624 85.7507 340.633 85.7434C340.66 85.7312 340.685 85.7191 340.709 85.7069C341.12 85.5147 342.794 84.77 343.911 84.8357C345.194 84.9112 348.048 82.5653 348.136 81.9399C348.221 81.312 344.303 79.4796 343.172 79.3093Z" fill="#ED975D"/>
<path d="M334.285 187.522L330.277 188.337C330.277 188.337 311.936 167.73 309.105 159.057C307.592 154.424 297.909 152.421 287.788 149.805C278.981 147.527 269.844 144.785 265.478 139.431C256.097 127.931 271.369 113.797 271.369 113.797C271.369 113.797 287.606 123.448 301.615 133.416C311.405 140.383 320.107 147.505 321.419 151.599C324.604 161.554 331.357 180.477 334.285 187.522Z" fill="#2B478B"/>
<path d="M328.918 194.32H331.171C331.926 194.2 332.483 193.981 333.259 193.882C334.435 193.728 334.977 194.21 335.084 194.32C335.099 194.334 335.106 194.341 335.106 194.341H344.682C344.923 193.998 344.692 193.2 344.465 192.614C344.312 192.215 343.981 191.913 343.57 191.794C342.555 191.499 340.552 191.236 338.72 189.577C337.688 188.645 333.739 186.15 333.739 186.15L333.717 186.146C333.629 186.148 333.218 186.274 331.42 187.791C330.49 188.574 328.908 186.686 328.908 186.686C328.908 186.686 328.611 186.932 328.39 187.389C328.212 187.752 328.081 188.248 328.183 188.859C328.327 189.723 327.864 191.326 327.497 192.409C327.273 193.066 327.086 193.534 327.086 193.534C327.086 193.534 326.978 194.076 328.918 194.32Z" fill="#233862"/>
<path d="M301.615 133.416L287.788 149.805C278.981 147.527 269.844 144.785 265.478 139.431C256.097 127.931 271.369 113.797 271.369 113.797C271.369 113.797 287.608 123.448 301.615 133.416Z" fill="#1E3D70"/>
<path d="M289.051 124.857C289.051 124.857 287.936 128.371 286.121 133.659C283.826 140.346 280.41 149.866 276.701 158.694C275.886 160.634 275.058 162.542 274.224 164.379C271.141 171.173 267.984 176.996 265.208 179.958C260.214 185.28 248.078 219.485 248.078 219.485L245.054 218.648C245.054 218.648 240.836 189.439 255.773 172.818C255.934 172.64 256.058 172.436 256.075 172.198C256.077 172.195 256.077 172.193 256.077 172.19C256.277 169.73 256.987 158.711 258.533 147.549C258.912 144.809 259.343 142.064 259.827 139.433C259.857 139.265 259.891 139.097 259.92 138.932C262.193 126.765 264.368 121.352 267.176 118.632L287.827 124.511L289.051 124.857Z" fill="#2B478B"/>
<path d="M244.715 223.684H246.969C247.723 223.565 248.28 223.346 249.057 223.246C250.232 223.093 250.775 223.575 250.882 223.684C250.896 223.699 250.904 223.706 250.904 223.706H260.479C260.72 223.363 260.489 222.565 260.263 221.978C260.11 221.579 259.779 221.278 259.367 221.158C258.353 220.864 256.35 220.604 254.517 218.944C253.486 218.012 249.536 215.518 249.536 215.518L249.514 215.513C249.427 215.515 249.015 215.642 247.217 217.158C246.287 217.941 244.706 216.053 244.706 216.053C244.706 216.053 244.409 216.299 244.187 216.756C244.01 217.116 243.878 217.615 243.983 218.226C244.126 219.09 243.664 220.694 243.297 221.776C243.073 222.434 242.885 222.901 242.885 222.901C242.885 222.901 242.776 223.443 244.715 223.684Z" fill="#233862"/>
<path d="M249.144 85.1304C249.144 85.1304 245.688 93.5843 241.705 101.812C238.354 108.73 234.631 115.488 232.27 116.929C228.941 118.963 219.772 124.699 213.822 128.977C213.822 128.977 209.179 128.943 208.459 129.831C207.738 130.719 206.074 134.713 206.558 135.117C207.045 135.521 210.734 135.333 211.632 134.413C212.413 133.613 214.155 133.036 214.589 132.902C214.615 132.895 214.642 132.885 214.669 132.878C214.681 132.875 214.688 132.873 214.688 132.873C221.918 130.649 233.256 126.015 236.687 123.75C239.641 121.798 246.195 113.729 251.419 106.547C251.422 106.547 251.422 106.547 251.422 106.547C255.211 101.342 258.301 96.6019 258.817 95.0031C262.202 84.5367 252.466 81.7844 249.144 85.1304Z" fill="#FFB27D"/>
<path d="M267.215 51.9839C266.803 51.3852 266.39 50.8572 265.976 50.3851C266.487 50.3948 267.042 50.3462 267.502 50.1563C268.714 49.655 269.268 45.8053 269.086 44.6615C268.903 43.5202 267.219 40.218 265.141 39.8871C263.063 39.5585 260.917 41.8655 260.917 41.8655C261.301 40.201 264.815 39.2397 264.815 39.2397C257.576 40.5757 257.943 45.4038 257.994 45.8491C251.365 43.4886 247.477 55.9699 247.477 55.9699L264.645 66.0859C264.645 66.0859 264.689 63.3288 266.329 63.5064C268.881 63.7838 271.008 57.5127 267.215 51.9839Z" fill="#2E3750"/>
<path d="M268.31 78.1716C264.37 80.0283 259.143 77.3539 259.172 77.3247C259.51 76.9865 259.391 75.9766 259.082 74.6528C258.773 73.273 258.041 71.3895 256.69 69.1385C256.408 68.6591 256.128 68.1821 255.79 67.676L256.24 67.5081L263.893 64.4419C263.893 64.4419 265.132 66.6637 266.426 68.6907C267.524 70.3796 268.677 71.8981 269.183 71.8421C269.21 71.8129 274.274 75.3001 268.31 78.1716Z" fill="#FFB27D"/>
<path d="M263.891 65.1997C263.693 67.9276 262.764 72.853 259.08 74.6538C258.771 73.274 258.038 71.3905 256.688 69.1395L263.891 65.1997Z" fill="#ED975D"/>
<path d="M256.24 72.2467C256.24 72.2467 266.203 68.3191 263.662 62.1526C261.122 55.9862 260.696 51.3261 254.228 53.5722C247.759 55.8183 247.499 58.6776 247.847 60.9432C248.195 63.2063 253.583 73.1082 256.24 72.2467Z" fill="#FFB27D"/>
<path d="M259.958 60.7467C264.557 60.0969 265.901 58.2378 265.901 58.2378C265.901 58.2378 261.664 57.021 259.174 52.8719C259.174 52.8719 254.003 51.1271 250.171 54.0424C249.937 54.3466 249.769 54.7019 249.686 55.1229C248.808 54.8358 247.486 54.9088 246.725 57.3933C245.579 61.1214 249.652 65.1951 249.652 65.1951C250.64 64.9152 249.526 61.5935 249.37 59.8195C249.256 58.5152 249.959 56.8434 250.339 56.0501C250.825 56.6828 255.68 62.7811 261.606 63.0244C261.606 63.0244 258.476 61.9391 255.626 59.8147C257.045 60.5106 258.552 60.9438 259.958 60.7467Z" fill="#2E3750"/>
<path d="M287.279 90.8787C287.194 90.5818 287.104 90.2727 287.009 89.9564C288.488 87.1287 289.216 84.5784 289.523 82.4223C290.199 77.8644 289.046 75.0513 289.046 75.0513C289.046 75.0513 282.135 71.3865 279.083 70.9193C279.071 70.9144 279.056 70.9095 279.044 70.9071C279.008 70.9022 278.966 70.8974 278.922 70.8949C275.842 70.4691 269.174 71.8318 269.174 71.8318C269.174 71.8318 270.461 75.2557 266.83 77.5408C263.202 79.8234 259.326 76.9567 259.326 76.9567C259.209 77.0346 259.085 77.1222 258.956 77.2123C258.956 77.2123 249.407 83.5125 248.548 84.9532C247.691 86.3938 244.017 93.5214 244.017 93.5214C244.017 93.5214 245.182 99.5078 258.082 100.007C259.143 102.579 259.953 105.088 260.219 107.181C261.243 115.306 260.053 121.713 261.248 126.456C262.443 131.199 283.967 128.495 287.865 127.583C291.764 126.67 290.888 122.509 291.187 118.465C291.564 113.381 288.549 95.3612 287.279 90.8787Z" fill="#699DEE"/>
<path d="M289.523 82.4222C289.214 84.588 288.481 87.148 286.99 89.9903C286.651 88.4986 285.274 83.0403 283.05 80.5654C283.052 80.563 286.795 80.9013 289.523 82.4222Z" fill="#4A82D3"/>
<path d="M201.881 135.668C201.881 135.668 205.891 130.809 206.755 130.234C207.619 129.66 211.406 128.652 211.622 128.854C211.839 129.056 211.849 129.351 211.379 129.765C210.909 130.178 209.118 131.225 209.374 131.341C209.629 131.458 215.034 128.769 215.813 129.675C216.591 130.58 215.372 134.315 213.289 136.106C211.206 137.897 204.991 138.661 204.599 138.91C201.285 141.032 201.881 135.668 201.881 135.668Z" fill="#ED975D"/>
<path d="M131.278 124.444C131.278 124.444 137.038 131.28 144.375 128.421C144.375 128.421 145.955 124.602 145.977 121.789C145.979 121.444 145.984 121.108 145.989 120.789C146.028 117.621 146.135 115.842 146.135 115.842C146.135 115.842 146.132 115.842 146.127 115.839C145.794 115.701 134.911 111.233 134.921 111.603C135.109 120.176 131.278 124.444 131.278 124.444Z" fill="#FFB27D"/>
<path d="M136.013 113.65C137.062 115.594 140.664 119.4 145.988 120.79C146.027 117.621 146.134 115.842 146.134 115.842C146.134 115.842 146.132 115.842 146.127 115.84C145.825 115.76 135.702 113.076 136.013 113.65Z" fill="#ED975D"/>
<path d="M148.414 115.515C148.414 115.515 136.176 118.391 134.502 110.743C132.828 103.094 130.122 98.3149 137.863 96.154C145.606 93.9931 147.767 96.5798 148.947 98.9963C150.128 101.413 151.554 114.568 148.414 115.515Z" fill="#FFB27D"/>
<path d="M134.921 112.828C134.753 112.935 132.12 113.743 127.134 103.809C126.35 102.249 125.817 98.8764 127.642 95.8954C129.467 92.9144 135.938 90.571 141.314 89.5513C146.689 88.5317 147.979 91.5565 149.247 94.596C150.575 97.7862 154.413 100.414 154.413 100.414C149.777 103.004 144.195 99.2999 142.26 99.9082C140.326 100.517 139.642 103.566 139.498 104.544C139.352 105.52 139.131 106.333 136.697 105.459C134.264 104.585 135.597 108.907 135.987 109.732C135.984 109.732 136.315 111.932 134.921 112.828Z" fill="#A9453D"/>
<path d="M103.398 303.804H95.9876C94.4351 303.804 92.7073 302.227 92.2766 299.344C91.8434 296.455 88.6507 294.883 87.9596 292.52C87.2685 290.157 90.8092 286.833 90.8092 286.833L91.4005 286.062L92.0162 285.259L97.8857 286.658C97.8857 286.658 98.0293 288.074 98.1218 289.878C98.185 291.179 98.2191 292.686 98.1461 294.007C97.9733 297.159 99.0173 300.548 101.777 301.162C104.541 301.772 103.398 303.804 103.398 303.804Z" fill="#2C3A64"/>
<path d="M154.983 303.877H135.342C135.155 303.838 135.011 303.797 134.926 303.753C133.614 303.076 134.025 297.908 134.184 296.311C134.215 296.017 134.235 295.842 134.235 295.842C134.235 295.842 141.141 290.155 142.092 294.508C142.122 294.644 142.158 294.778 142.195 294.91V294.912C143.394 298.988 148.753 300.837 151.848 301.353C154.211 301.75 154.824 303.169 154.983 303.877Z" fill="#2C3A64"/>
<path d="M151.023 190.293C151.023 190.293 149.974 203.38 148.74 219.11C147.063 240.481 145.048 266.729 144.849 271.7C144.503 280.334 143.121 294.147 143.121 294.147C143.121 294.147 139.843 297.427 133.28 296.045C133.28 296.045 127.433 276.329 125.761 255.466C125.734 255.123 125.71 254.78 125.683 254.435C124.13 233.198 121.711 188.478 121.711 188.478L151.023 190.293Z" fill="#EE9849"/>
<path d="M151.023 190.293C151.023 190.293 149.974 203.381 148.74 219.111L125.763 255.469C125.736 255.126 125.712 254.783 125.685 254.438C124.133 233.201 121.714 188.48 121.714 188.48L151.023 190.293Z" fill="#E58638"/>
<path d="M146.232 191.848C146.232 191.848 127.326 239.242 114.894 261.516C102.461 283.789 98.5772 290.005 98.5772 290.005C98.5772 290.005 91.4544 287.155 90.8071 285.213C90.8071 285.213 95.5621 242.213 103.887 231.73C108.591 225.807 114.117 208.033 114.375 201.818C114.633 195.603 116.059 183.299 116.059 183.299L146.232 191.848Z" fill="#EE9849"/>
<path d="M102.945 183.954C102.945 183.954 102.456 189.872 102.096 190.782C101.738 191.69 99.3462 194.508 99.0713 194.469C98.7938 194.427 98.6284 194.206 98.7695 193.634C98.9106 193.06 99.7332 191.288 99.4728 191.334C99.2124 191.381 96.4747 196.372 95.387 196.089C94.2968 195.807 93.2309 192.259 93.8806 189.753C94.528 187.246 98.9301 183.311 99.098 182.907C100.522 179.481 102.945 183.954 102.945 183.954Z" fill="#ED975D"/>
<path d="M100.916 185.456C103.009 186.127 103.344 185.976 103.344 185.976C103.344 185.976 113.529 167.433 114.56 165.735C115.592 164.036 136.187 144.941 136.187 144.941L130.894 125.205C130.894 125.205 107.472 155.536 104.941 159.889C100.76 167.08 98.312 183.786 98.312 183.786C98.312 183.786 99.2732 184.928 100.916 185.456Z" fill="#1E3D70"/>
<path d="M155.014 152.685C154.941 156.74 154.705 161.295 154.389 165.921C154.369 166.196 154.35 166.471 154.33 166.744C154.128 169.61 153.907 172.484 153.654 175.285C153.552 176.409 153.444 177.519 153.333 178.609L153.316 178.755C153.306 179.164 153.257 179.607 153.211 180.011C152.179 190.506 151.096 198.797 150.894 198.924C150.653 199.085 150.383 199.165 150.089 199.128C147.336 198.783 139.126 199.408 132.402 197.943C126.73 196.746 121.846 194.478 116.667 191.419C115.981 191.013 114.414 189.937 114.54 189.134C114.665 188.251 114.896 186.973 115.19 185.369C116.21 179.787 117.969 170.185 118.57 158.947C118.687 156.854 118.857 154.785 119.079 152.753C119.656 147.458 120.58 142.428 121.821 137.96C124.126 129.66 127.513 123.306 131.762 120.819C132.317 120.507 135.305 122.408 138.048 124.17C140.581 125.795 143.251 126.243 145.845 126.017L148.127 128.543C150.892 131.757 153.836 136.038 154.642 142.119C154.703 142.569 154.754 143.046 154.797 143.552C155.021 146.037 155.077 149.174 155.014 152.685Z" fill="#2A4E96"/>
<path d="M155.014 152.687C154.941 156.741 154.705 161.296 154.388 165.922C154.369 166.197 154.35 166.472 154.33 166.745C138.61 156.904 136.188 138.898 136.188 138.898C143.922 139.237 150.067 141.016 154.802 143.559C155.021 146.038 155.077 149.175 155.014 152.687Z" fill="#1E3D70"/>
<path d="M204.268 136.151C203.458 133.959 202.197 134.103 202.197 134.103C202.197 134.103 178.824 139.928 176.726 140.176C174.629 140.427 151.557 131.168 151.557 131.168C151.557 131.168 142.475 127.092 138.221 130.812C134.525 134.047 134.357 138.142 135.221 141.583C136.253 145.683 139.72 148.711 143.913 149.246C153.326 150.446 172.107 152.702 176.042 152.154C184.803 150.935 204.655 139.476 204.655 139.476C204.655 139.476 204.903 137.874 204.268 136.151Z" fill="#2A4E96"/>
<path d="M434.75 178.996C434.75 178.996 437.996 182.007 437.363 184.146C436.731 186.285 433.798 187.711 433.404 190.324C433.01 192.938 431.423 194.364 429.997 194.364C428.571 194.364 423.201 194.364 423.201 194.364C423.201 194.364 422.152 192.524 424.685 191.969C427.221 191.414 428.175 188.343 428.016 185.491C427.858 182.639 428.255 178.838 428.255 178.838L433.64 177.57L434.75 178.996Z" fill="#2C3A64"/>
<path d="M394.276 194.006C393.948 194.171 392.79 194.286 391.2 194.361H375.831C375.882 193.903 376.239 192.273 378.753 191.869C381.593 191.407 386.511 189.757 387.609 186.126C387.645 186.009 387.677 185.89 387.704 185.771C388.575 181.889 394.909 186.958 394.909 186.958C394.909 186.958 394.929 187.114 394.955 187.379C395.104 188.803 395.479 193.407 394.276 194.006Z" fill="#2C3A64"/>
<path d="M379.504 90.2011C379.504 90.2011 380.466 102.208 381.597 116.641C383.135 136.247 384.985 160.329 385.167 164.892C385.483 172.813 386.751 185.486 386.751 185.486C386.751 185.486 389.759 188.497 395.782 187.229C395.782 187.229 401.148 169.138 402.681 149.999C402.705 149.685 402.73 149.369 402.751 149.052C404.177 129.568 406.394 88.5391 406.394 88.5391L379.504 90.2011Z" fill="#35488B"/>
<path d="M379.504 90.2016C379.504 90.2016 380.466 102.208 381.597 116.641L402.678 149.997C402.703 149.683 402.727 149.367 402.749 149.05C404.175 129.566 406.392 88.5371 406.392 88.5371L379.504 90.2016Z" fill="#2C3A64"/>
<path d="M383.9 91.6278C383.9 91.6278 401.246 135.112 412.651 155.546C424.057 175.98 427.622 181.684 427.622 181.684C427.622 181.684 434.156 179.07 434.75 177.289C434.75 177.289 430.389 137.837 422.75 128.222C418.433 122.788 413.364 106.482 413.128 100.778C412.89 95.076 411.583 83.7871 411.583 83.7871L383.9 91.6278Z" fill="#35488B"/>
<path d="M330.398 68.0445C330.398 68.0445 325.694 66.9689 324.9 67.0224C324.11 67.076 321.338 68.2367 321.301 68.4606C321.265 68.6845 321.396 68.867 321.873 68.9011C322.353 68.9327 323.927 68.7307 323.827 68.9206C323.728 69.1104 319.189 70.0035 319.14 70.916C319.089 71.8286 321.576 73.5271 323.676 73.6415C325.777 73.7559 329.906 71.3151 330.261 71.2835C333.267 71.0207 330.398 68.0445 330.398 68.0445Z" fill="#FFB27D"/>
<path d="M328.386 69.2377C327.711 67.0889 327.87 66.7458 327.87 66.7458C327.87 66.7458 346.941 56.4327 348.688 55.3863C350.435 54.3399 370.144 33.3657 370.144 33.3657L390.332 38.9214C390.332 38.9214 359.091 62.7184 354.614 65.2832C347.216 69.5175 330.082 71.9145 330.082 71.9145C330.082 71.9145 328.914 70.9265 328.386 69.2377Z" fill="#E58638"/>
<path d="M376.259 23.1721C376.259 23.1721 369.182 35.6242 362.264 37.2497C362.264 37.2497 362.551 33.0666 364.238 30.2048C363.547 29.392 362.943 28.645 362.417 27.9757C360.675 25.7442 359.848 24.3791 359.848 24.3791L362.196 18.0666L363.79 13.7837C364.556 15.1732 365.398 16.3583 366.279 17.3706C370.81 22.5832 376.259 23.1721 376.259 23.1721Z" fill="#FFB27D"/>
<path d="M366.277 17.3699C366.277 17.3699 367.121 23.6093 362.415 27.975C360.673 25.7435 359.845 24.3783 359.845 24.3783L362.194 18.0658C364.712 17.2993 366.277 17.3699 366.277 17.3699Z" fill="#ED975D"/>
<path d="M357.98 25.2976C357.98 25.2976 368.556 21.1753 365.887 14.6292C363.217 8.08318 362.787 3.14322 355.922 5.49883C349.057 7.85444 348.772 10.8841 349.132 13.286C349.49 15.6854 355.162 26.2004 357.98 25.2976Z" fill="#FFB27D"/>
<path d="M412.608 87.0723C408.342 93.2047 376.449 101.401 376.826 97.1542C376.969 95.5287 377.164 92.6645 376.821 88.7806C376.741 87.8705 376.629 86.9069 376.483 85.8872C375.672 80.3097 373.748 73.1358 369.455 64.8352C369.134 64.2122 368.798 63.5868 368.45 62.9517C366.683 59.7371 365.177 56.3399 364.028 53.0158C361.819 46.6303 360.928 40.5199 362.043 36.5265C362.047 36.5071 362.055 36.49 362.06 36.4705C368.727 33.3873 371.309 21.4316 371.309 21.4316C371.309 21.4316 394.055 25.515 406.794 55.8338C406.797 55.8338 416.319 81.7333 412.608 87.0723Z" fill="#EE9849"/>
<path d="M376.821 88.7803C376.741 87.8702 376.629 86.9065 376.483 85.8869C375.673 80.3094 373.748 73.1355 369.455 64.8349C370.192 60.367 371.21 56.6511 372.327 54.9793C376.863 48.1801 379.505 47.1191 379.505 47.1191C379.505 47.1191 386.307 75.8074 376.821 88.7803Z" fill="#E58638"/>
<path d="M340.969 81.9541C340.969 81.9541 334.676 82.2851 333.702 82.6355C332.726 82.9859 329.663 85.4315 329.697 85.726C329.731 86.0204 329.962 86.203 330.573 86.074C331.186 85.9426 333.091 85.1274 333.033 85.4023C332.975 85.6773 327.597 88.4199 327.859 89.5831C328.122 90.7487 331.85 91.9898 334.53 91.3838C337.209 90.7755 341.521 86.2346 341.954 86.0716C345.634 84.6674 340.969 81.9541 340.969 81.9541Z" fill="#FFB27D"/>
<path d="M339.782 84.341C338.521 82.3042 339.429 81.3746 339.429 81.3746C339.429 81.3746 358.865 66.1556 360.389 64.6177C361.912 63.0797 368.969 38.5989 368.969 38.5989C368.969 38.5989 371.398 28.6922 377.087 27.5996C382.029 26.6505 385.446 29.0962 387.682 31.9628C390.347 35.3794 390.607 40.0906 388.398 43.8163C383.436 52.1777 373.425 68.7789 370.5 71.6139C363.993 77.9264 342.223 86.7453 342.223 86.7453C342.223 86.7453 340.772 85.9398 339.782 84.341Z" fill="#EE9849"/>
<path d="M367.406 2.46998C367.479 2.32397 367.695 2.16823 368.221 2.00762C368.221 2.00762 367.729 1.84214 367.155 1.96869C366.858 1.24351 366.138 0.00973392 364.782 0C364.782 0 365.559 0.201979 365.846 0.978259C363.991 -0.197112 360.553 -0.537799 351.97 2.31911C340.659 6.08613 346.31 12.6541 348.023 13.1797C349.739 13.7054 352.895 10.3277 355.732 9.86533C358.57 9.40297 360.108 13.3574 361.188 13.6859C362.271 14.0144 361.655 13.114 362.789 12.2136C363.923 11.3132 364.573 13.4328 364.549 14.9221C364.524 16.4114 366.734 17.8228 366.734 17.8228C366.734 17.8228 366.734 17.8228 368.031 15.4453C369.328 13.0678 368.975 4.43867 367.737 2.88367C367.627 2.74983 367.518 2.61112 367.406 2.46998Z" fill="#233934"/>
<path d="M188.607 303.555V316.357L158.303 303.555H188.607Z" fill="#1D4490"/>
<path d="M447.937 194.362H347.721V325.992H447.937V194.362Z" fill="#1D4490"/>
<path d="M417.037 194.362H316.819V325.992H417.037V194.362Z" fill="#1D51B5"/>
<path d="M447.938 194.362V214.047L417.038 194.362H447.938Z" fill="#193977"/>
</g>
</svg>
