<svg width="44" height="44" viewBox="0 0 44 44" fill="none" xmlns="http://www.w3.org/2000/svg">
<path d="M19.869 0H13.9062C6.22912 0 0 6.22912 0 13.9062V42.0397C0 42.9823 0.76498 43.7473 1.70754 43.7473H19.869C34.1782 43.7473 43.9932 35.1208 43.9932 21.8702C44 8.61968 34.185 0 19.869 0ZM13.6194 8.31233H14.1931C17.2462 8.46942 19.6436 11.0581 19.5002 14.1658C19.3772 16.9593 17.0959 19.3089 14.3092 19.5002C12.4241 19.6299 10.7234 18.8308 9.61006 17.5126C8.78361 16.529 8.40112 15.2518 8.40112 13.9677V13.8584C8.40112 12.5948 8.77678 11.3313 9.57591 10.3545C10.5458 9.17293 11.9938 8.39429 13.6194 8.31233ZM19.3704 35.435H8.74263C8.55138 35.435 8.40112 35.2847 8.40112 35.0935V26.945C8.40112 26.8221 8.52406 26.747 8.63334 26.788C10.2589 27.4505 12.0348 27.8193 13.9062 27.8193C21.5902 27.8193 27.8193 21.597 27.8193 13.9062C27.8193 12.7451 27.6759 11.6181 27.4095 10.539C27.3754 10.3955 27.5324 10.2726 27.6622 10.3477C31.4939 12.5948 33.7479 16.6042 33.7479 21.8702C33.7479 30.244 28.0652 35.435 19.3704 35.435Z" fill="#3968C6"/>
</svg>
