<svg width="19" height="16" viewBox="0 0 19 16" fill="none" xmlns="http://www.w3.org/2000/svg">
<path d="M14.1139 5.29128C14.6659 4.73928 15.2139 3.45128 12.9139 5.01528C9.64592 7.27028 6.42492 9.38728 6.42492 9.38728C6.09336 9.5372 5.73491 9.61856 5.37112 9.62647C5.00732 9.63437 4.64568 9.56866 4.30792 9.43328C2.92792 9.01928 1.31692 8.46728 1.31692 8.46728C1.31692 8.46728 0.216918 7.77628 2.09992 7.04028C2.09992 7.04028 10.0609 3.77328 12.8219 2.62228C13.8799 2.16228 17.4689 0.690276 17.4689 0.690276C17.4689 0.690276 19.1259 0.0452759 18.9879 1.61028C18.9419 2.25428 18.5739 4.51028 18.2059 6.94828C17.6529 10.3993 17.0549 14.1733 17.0549 14.1733C17.0549 14.1733 16.9629 15.2313 16.1809 15.4153C15.3438 15.4011 14.535 15.1099 13.8809 14.5873C13.6969 14.4493 10.4299 12.3783 9.23292 11.3663C9.11116 11.2838 9.01223 11.1719 8.94535 11.0409C8.87848 10.9099 8.84581 10.7641 8.8504 10.6171C8.85499 10.4701 8.89669 10.3267 8.97161 10.2001C9.04653 10.0736 9.15225 9.968 9.27892 9.89328C10.9389 8.37528 12.9179 6.48828 14.1139 5.29128Z" fill="#3968C6"/>
</svg>
